<mxfile host="Electron" modified="2024-09-09T10:56:33.789Z" agent="Mozilla/5.0 (Windows NT 10.0; Win64; x64) AppleWebKit/537.36 (KHTML, like Gecko) draw.io/24.2.5 Chrome/120.0.6099.109 Electron/28.1.0 Safari/537.36" etag="iHnZGNI0v7WyEa5fa4YN" version="24.2.5" type="device">
  <diagram name="Page-1" id="c4acf3e9-155e-7222-9cf6-157b1a14988f">
    <mxGraphModel dx="712" dy="2029" grid="1" gridSize="10" guides="1" tooltips="1" connect="1" arrows="1" fold="1" page="1" pageScale="1" pageWidth="850" pageHeight="1100" background="none" math="0" shadow="0">
      <root>
        <mxCell id="0" />
        <mxCell id="1" parent="0" />
        <mxCell id="fb7qDsoBfBqJsrEPXAHY-73" value="&lt;p style=&quot;margin:0px;margin-top:4px;text-align:center;&quot;&gt;&lt;i&gt;&amp;lt;&amp;lt;Interface&amp;gt;&amp;gt;&lt;/i&gt;&lt;br&gt;&lt;b&gt;DefaultConfigDirectoryAndFilePath&lt;/b&gt;&lt;br&gt;&lt;/p&gt;&lt;hr size=&quot;1&quot; style=&quot;border-style:solid;&quot;&gt;&lt;p style=&quot;margin:0px;margin-left:4px;&quot;&gt;&lt;span style=&quot;background-color: initial;&quot;&gt;+ CONFIG_DIRECTORY_FOLDER_NAME : String = &quot;automatisationConfig&quot; {readOnly}&lt;/span&gt;&lt;br&gt;&lt;/p&gt;&lt;p style=&quot;margin:0px;margin-left:4px;&quot;&gt;+ CONFIG_FILE_NAME : String = &quot;arduinoCLIUtilizerConfig.yaml&quot; {readOnly}&lt;/p&gt;" style="verticalAlign=top;align=left;overflow=fill;html=1;whiteSpace=wrap;" parent="1" vertex="1">
          <mxGeometry x="1220" y="10" width="480" height="80" as="geometry" />
        </mxCell>
        <mxCell id="fb7qDsoBfBqJsrEPXAHY-134" value="ConnectedBoardsFinder" style="swimlane;fontStyle=1;align=center;verticalAlign=top;childLayout=stackLayout;horizontal=1;startSize=26;horizontalStack=0;resizeParent=1;resizeParentMax=0;resizeLast=0;collapsible=1;marginBottom=0;whiteSpace=wrap;html=1;" parent="1" vertex="1">
          <mxGeometry x="1220" y="130" width="500" height="160" as="geometry" />
        </mxCell>
        <mxCell id="fb7qDsoBfBqJsrEPXAHY-135" value="+ messageWindowTitle: String = &quot;ArduinoCLIUtilizer: ConnectedBoardsFinder&quot; {readOnly}&lt;div&gt;+ resultList:&amp;nbsp;ArrayList&amp;lt;Map&amp;lt;String, Object&amp;gt;&amp;gt;&lt;/div&gt;&lt;div&gt;+ numberOfBoards: int&lt;/div&gt;" style="text;strokeColor=none;fillColor=none;align=left;verticalAlign=top;spacingLeft=4;spacingRight=4;overflow=hidden;rotatable=0;points=[[0,0.5],[1,0.5]];portConstraint=eastwest;whiteSpace=wrap;html=1;" parent="fb7qDsoBfBqJsrEPXAHY-134" vertex="1">
          <mxGeometry y="26" width="500" height="54" as="geometry" />
        </mxCell>
        <mxCell id="fb7qDsoBfBqJsrEPXAHY-136" value="" style="line;strokeWidth=1;fillColor=none;align=left;verticalAlign=middle;spacingTop=-1;spacingLeft=3;spacingRight=3;rotatable=0;labelPosition=right;points=[];portConstraint=eastwest;strokeColor=inherit;" parent="fb7qDsoBfBqJsrEPXAHY-134" vertex="1">
          <mxGeometry y="80" width="500" height="8" as="geometry" />
        </mxCell>
        <mxCell id="fb7qDsoBfBqJsrEPXAHY-137" value="+ ConnectedBoardsFinder(targetFilePath: Path): ConnectedBoardsFinder&lt;div&gt;+ generateResultMessage(): String&lt;br&gt;&lt;/div&gt;&lt;div&gt;+ getResultList():&amp;nbsp;ArrayList&amp;lt;Map&amp;lt;String, Object&amp;gt;&amp;gt;&lt;/div&gt;&lt;div&gt;+ getNumberOfBoards(): int&lt;/div&gt;" style="text;strokeColor=none;fillColor=none;align=left;verticalAlign=top;spacingLeft=4;spacingRight=4;overflow=hidden;rotatable=0;points=[[0,0.5],[1,0.5]];portConstraint=eastwest;whiteSpace=wrap;html=1;" parent="fb7qDsoBfBqJsrEPXAHY-134" vertex="1">
          <mxGeometry y="88" width="500" height="72" as="geometry" />
        </mxCell>
        <mxCell id="fb7qDsoBfBqJsrEPXAHY-140" value="FQBNAndCoresHandler" style="swimlane;fontStyle=1;align=center;verticalAlign=top;childLayout=stackLayout;horizontal=1;startSize=26;horizontalStack=0;resizeParent=1;resizeParentMax=0;resizeLast=0;collapsible=1;marginBottom=0;whiteSpace=wrap;html=1;" parent="1" vertex="1">
          <mxGeometry x="1240" y="480" width="430" height="140" as="geometry" />
        </mxCell>
        <mxCell id="fb7qDsoBfBqJsrEPXAHY-141" value="+ &lt;u&gt;messageWindowTitle: String = &quot;ArduinoCLIUtilizer: Core search&quot;&lt;/u&gt; {readOnly}&lt;div&gt;+ coreFound: boolean&lt;/div&gt;&lt;div&gt;+&amp;nbsp;InstallCoreForBoardInstance:&amp;nbsp;InstallCoreForBoard&lt;/div&gt;" style="text;strokeColor=none;fillColor=none;align=left;verticalAlign=top;spacingLeft=4;spacingRight=4;overflow=hidden;rotatable=0;points=[[0,0.5],[1,0.5]];portConstraint=eastwest;whiteSpace=wrap;html=1;" parent="fb7qDsoBfBqJsrEPXAHY-140" vertex="1">
          <mxGeometry y="26" width="430" height="54" as="geometry" />
        </mxCell>
        <mxCell id="fb7qDsoBfBqJsrEPXAHY-142" value="" style="line;strokeWidth=1;fillColor=none;align=left;verticalAlign=middle;spacingTop=-1;spacingLeft=3;spacingRight=3;rotatable=0;labelPosition=right;points=[];portConstraint=eastwest;strokeColor=inherit;" parent="fb7qDsoBfBqJsrEPXAHY-140" vertex="1">
          <mxGeometry y="80" width="430" height="8" as="geometry" />
        </mxCell>
        <mxCell id="fb7qDsoBfBqJsrEPXAHY-143" value="+ FQBNAndCoresHandler(targetFilePath: Path, foundPortAddress: String, foundFqbn: String): FQBNAndCoresHandler&lt;div&gt;+ generateResultMessage(): String&lt;br&gt;&lt;/div&gt;" style="text;strokeColor=none;fillColor=none;align=left;verticalAlign=top;spacingLeft=4;spacingRight=4;overflow=hidden;rotatable=0;points=[[0,0.5],[1,0.5]];portConstraint=eastwest;whiteSpace=wrap;html=1;" parent="fb7qDsoBfBqJsrEPXAHY-140" vertex="1">
          <mxGeometry y="88" width="430" height="52" as="geometry" />
        </mxCell>
        <mxCell id="PB90sreJ_Cs1K-A4sm1Q-1" value="ArduinoCLIUtilizerConfigGenerator" style="swimlane;fontStyle=1;align=center;verticalAlign=top;childLayout=stackLayout;horizontal=1;startSize=26;horizontalStack=0;resizeParent=1;resizeParentMax=0;resizeLast=0;collapsible=1;marginBottom=0;whiteSpace=wrap;html=1;" parent="1" vertex="1">
          <mxGeometry x="1220" y="-226" width="420" height="200" as="geometry" />
        </mxCell>
        <mxCell id="PB90sreJ_Cs1K-A4sm1Q-2" value="-&amp;nbsp;completeConfigDirectoryPath: Path&lt;div&gt;-&amp;nbsp;completeConfigFilePath: Path&lt;/div&gt;&lt;div&gt;- advice: String&lt;/div&gt;" style="text;strokeColor=none;fillColor=none;align=left;verticalAlign=top;spacingLeft=4;spacingRight=4;overflow=hidden;rotatable=0;points=[[0,0.5],[1,0.5]];portConstraint=eastwest;whiteSpace=wrap;html=1;" parent="PB90sreJ_Cs1K-A4sm1Q-1" vertex="1">
          <mxGeometry y="26" width="420" height="54" as="geometry" />
        </mxCell>
        <mxCell id="PB90sreJ_Cs1K-A4sm1Q-3" value="" style="line;strokeWidth=1;fillColor=none;align=left;verticalAlign=middle;spacingTop=-1;spacingLeft=3;spacingRight=3;rotatable=0;labelPosition=right;points=[];portConstraint=eastwest;strokeColor=inherit;" parent="PB90sreJ_Cs1K-A4sm1Q-1" vertex="1">
          <mxGeometry y="80" width="420" height="8" as="geometry" />
        </mxCell>
        <mxCell id="PB90sreJ_Cs1K-A4sm1Q-4" value="+ ArduinoCLIUtilizerConfigGenerator():&amp;nbsp;ArduinoCLIUtilizerConfigGenerator&lt;div&gt;+ generateArduinoCLIUtilizerConfigFile(): boolean&lt;/div&gt;&lt;div&gt;+ checkIfArduinoCLIUtilizerConfigFileExistsAtDefaultLocation(): boolean&lt;/div&gt;&lt;div&gt;+ checkForArduinoCLIKnownToSystem(): boolean&lt;br&gt;&lt;/div&gt;&lt;div&gt;+ checkForArduinoCLIAtDefaultPath(): boolean&lt;/div&gt;&lt;div&gt;+&amp;nbsp;getCompleteConfigFilePath(): Path&lt;/div&gt;+ getAdvice(): String" style="text;strokeColor=none;fillColor=none;align=left;verticalAlign=top;spacingLeft=4;spacingRight=4;overflow=hidden;rotatable=0;points=[[0,0.5],[1,0.5]];portConstraint=eastwest;whiteSpace=wrap;html=1;" parent="PB90sreJ_Cs1K-A4sm1Q-1" vertex="1">
          <mxGeometry y="88" width="420" height="112" as="geometry" />
        </mxCell>
        <mxCell id="PB90sreJ_Cs1K-A4sm1Q-5" value="implements" style="endArrow=block;dashed=1;endFill=0;endSize=12;html=1;rounded=0;verticalAlign=middle;" parent="1" source="PB90sreJ_Cs1K-A4sm1Q-1" target="fb7qDsoBfBqJsrEPXAHY-71" edge="1">
          <mxGeometry x="0.2209" y="-40" width="160" relative="1" as="geometry">
            <mxPoint x="1455.7575757575755" y="-230" as="sourcePoint" />
            <mxPoint x="890" y="-210" as="targetPoint" />
            <mxPoint as="offset" />
          </mxGeometry>
        </mxCell>
        <mxCell id="PB90sreJ_Cs1K-A4sm1Q-6" value="implements" style="endArrow=block;dashed=1;endFill=0;endSize=12;html=1;rounded=0;verticalAlign=middle;" parent="1" source="PB90sreJ_Cs1K-A4sm1Q-1" target="fb7qDsoBfBqJsrEPXAHY-73" edge="1">
          <mxGeometry y="-40" width="160" relative="1" as="geometry">
            <mxPoint x="1690" y="-250" as="sourcePoint" />
            <mxPoint x="1875" y="-430" as="targetPoint" />
            <mxPoint as="offset" />
          </mxGeometry>
        </mxCell>
        <mxCell id="PB90sreJ_Cs1K-A4sm1Q-7" value="GenerateArduinoCLIUtilizerConfigAction" style="swimlane;fontStyle=1;align=center;verticalAlign=top;childLayout=stackLayout;horizontal=1;startSize=26;horizontalStack=0;resizeParent=1;resizeParentMax=0;resizeLast=0;collapsible=1;marginBottom=0;whiteSpace=wrap;html=1;" parent="1" vertex="1">
          <mxGeometry x="1690" y="-170" width="480" height="130" as="geometry" />
        </mxCell>
        <mxCell id="PB90sreJ_Cs1K-A4sm1Q-8" value="- shell: Shell" style="text;strokeColor=none;fillColor=none;align=left;verticalAlign=top;spacingLeft=4;spacingRight=4;overflow=hidden;rotatable=0;points=[[0,0.5],[1,0.5]];portConstraint=eastwest;whiteSpace=wrap;html=1;" parent="PB90sreJ_Cs1K-A4sm1Q-7" vertex="1">
          <mxGeometry y="26" width="480" height="26" as="geometry" />
        </mxCell>
        <mxCell id="PB90sreJ_Cs1K-A4sm1Q-9" value="" style="line;strokeWidth=1;fillColor=none;align=left;verticalAlign=middle;spacingTop=-1;spacingLeft=3;spacingRight=3;rotatable=0;labelPosition=right;points=[];portConstraint=eastwest;strokeColor=inherit;" parent="PB90sreJ_Cs1K-A4sm1Q-7" vertex="1">
          <mxGeometry y="52" width="480" height="8" as="geometry" />
        </mxCell>
        <mxCell id="PB90sreJ_Cs1K-A4sm1Q-10" value="+ GenerateArduinoCLIUtilizerConfigAction():&amp;nbsp;GenerateArduinoCLIUtilizerConfigAction&lt;div&gt;+&amp;nbsp;setActivePart(action:&amp;nbsp;&lt;span style=&quot;background-color: initial;&quot;&gt;IAction&lt;/span&gt;&lt;span style=&quot;background-color: initial;&quot;&gt;, targetPart:&amp;nbsp;&lt;/span&gt;&lt;span style=&quot;background-color: initial;&quot;&gt;IWorkbenchPart&lt;/span&gt;&lt;span style=&quot;background-color: initial;&quot;&gt;): void&lt;/span&gt;&lt;/div&gt;&lt;div&gt;+ run(action:&amp;nbsp;&lt;span style=&quot;background-color: initial;&quot;&gt;IAction&lt;/span&gt;&lt;span style=&quot;background-color: initial;&quot;&gt;): void&lt;/span&gt;&lt;/div&gt;&lt;div&gt;+&amp;nbsp;selectionChanged(action:&amp;nbsp;&lt;span style=&quot;background-color: initial;&quot;&gt;IAction&lt;/span&gt;&lt;span style=&quot;background-color: initial;&quot;&gt;, selection:&amp;nbsp;&lt;/span&gt;&lt;span style=&quot;background-color: initial;&quot;&gt;ISelection&lt;/span&gt;&lt;span style=&quot;background-color: initial;&quot;&gt;): void&lt;/span&gt;&lt;/div&gt;" style="text;strokeColor=none;fillColor=none;align=left;verticalAlign=top;spacingLeft=4;spacingRight=4;overflow=hidden;rotatable=0;points=[[0,0.5],[1,0.5]];portConstraint=eastwest;whiteSpace=wrap;html=1;" parent="PB90sreJ_Cs1K-A4sm1Q-7" vertex="1">
          <mxGeometry y="60" width="480" height="70" as="geometry" />
        </mxCell>
        <mxCell id="PB90sreJ_Cs1K-A4sm1Q-11" value="Use" style="endArrow=open;endSize=12;dashed=1;html=1;rounded=0;exitX=0;exitY=0.5;exitDx=0;exitDy=0;" parent="1" source="PB90sreJ_Cs1K-A4sm1Q-8" target="PB90sreJ_Cs1K-A4sm1Q-1" edge="1">
          <mxGeometry x="0.1203" y="16" width="160" relative="1" as="geometry">
            <mxPoint x="1550" y="-40" as="sourcePoint" />
            <mxPoint x="1590" y="-200" as="targetPoint" />
            <mxPoint as="offset" />
          </mxGeometry>
        </mxCell>
        <mxCell id="PB90sreJ_Cs1K-A4sm1Q-16" value="BoardAutoSelectAndInstallation" style="swimlane;fontStyle=1;align=center;verticalAlign=top;childLayout=stackLayout;horizontal=1;startSize=26;horizontalStack=0;resizeParent=1;resizeParentMax=0;resizeLast=0;collapsible=1;marginBottom=0;whiteSpace=wrap;html=1;" parent="1" vertex="1">
          <mxGeometry x="1360" y="320" width="360" height="130" as="geometry" />
        </mxCell>
        <mxCell id="PB90sreJ_Cs1K-A4sm1Q-17" value="&lt;div&gt;-&amp;nbsp;foundFqbn: String&lt;/div&gt;- foundPortAddress: String" style="text;strokeColor=none;fillColor=none;align=left;verticalAlign=top;spacingLeft=4;spacingRight=4;overflow=hidden;rotatable=0;points=[[0,0.5],[1,0.5]];portConstraint=eastwest;whiteSpace=wrap;html=1;" parent="PB90sreJ_Cs1K-A4sm1Q-16" vertex="1">
          <mxGeometry y="26" width="360" height="42" as="geometry" />
        </mxCell>
        <mxCell id="PB90sreJ_Cs1K-A4sm1Q-18" value="" style="line;strokeWidth=1;fillColor=none;align=left;verticalAlign=middle;spacingTop=-1;spacingLeft=3;spacingRight=3;rotatable=0;labelPosition=right;points=[];portConstraint=eastwest;strokeColor=inherit;" parent="PB90sreJ_Cs1K-A4sm1Q-16" vertex="1">
          <mxGeometry y="68" width="360" height="8" as="geometry" />
        </mxCell>
        <mxCell id="PB90sreJ_Cs1K-A4sm1Q-19" value="+ autoSelectAndInstall(shell: Shell, targetFilePath: Path):&amp;nbsp;boolean&lt;div&gt;+ getF&lt;span style=&quot;background-color: initial;&quot;&gt;oundFqbn(): String&lt;/span&gt;&lt;br&gt;&lt;/div&gt;&lt;div&gt;&lt;span style=&quot;background-color: initial;&quot;&gt;+ getF&lt;/span&gt;&lt;span style=&quot;background-color: initial;&quot;&gt;oundPortAddress(): String&lt;/span&gt;&lt;/div&gt;" style="text;strokeColor=none;fillColor=none;align=left;verticalAlign=top;spacingLeft=4;spacingRight=4;overflow=hidden;rotatable=0;points=[[0,0.5],[1,0.5]];portConstraint=eastwest;whiteSpace=wrap;html=1;" parent="PB90sreJ_Cs1K-A4sm1Q-16" vertex="1">
          <mxGeometry y="76" width="360" height="54" as="geometry" />
        </mxCell>
        <mxCell id="PB90sreJ_Cs1K-A4sm1Q-20" value="Use" style="endArrow=open;endSize=12;dashed=1;html=1;rounded=0;" parent="1" source="PB90sreJ_Cs1K-A4sm1Q-16" target="fb7qDsoBfBqJsrEPXAHY-134" edge="1">
          <mxGeometry x="0.8266" y="22" width="160" relative="1" as="geometry">
            <mxPoint x="1540" y="180" as="sourcePoint" />
            <mxPoint x="1340" y="293" as="targetPoint" />
            <mxPoint as="offset" />
          </mxGeometry>
        </mxCell>
        <mxCell id="PB90sreJ_Cs1K-A4sm1Q-21" value="Use" style="endArrow=open;endSize=12;dashed=1;html=1;rounded=0;" parent="1" source="PB90sreJ_Cs1K-A4sm1Q-16" target="fb7qDsoBfBqJsrEPXAHY-140" edge="1">
          <mxGeometry x="-0.4952" y="17" width="160" relative="1" as="geometry">
            <mxPoint x="1569" y="170" as="sourcePoint" />
            <mxPoint x="1350" y="303" as="targetPoint" />
            <mxPoint as="offset" />
          </mxGeometry>
        </mxCell>
        <mxCell id="PB90sreJ_Cs1K-A4sm1Q-22" value="CompileAndUploadArduinoProjectAction" style="swimlane;fontStyle=1;align=center;verticalAlign=top;childLayout=stackLayout;horizontal=1;startSize=26;horizontalStack=0;resizeParent=1;resizeParentMax=0;resizeLast=0;collapsible=1;marginBottom=0;whiteSpace=wrap;html=1;" parent="1" vertex="1">
          <mxGeometry x="1770" y="670" width="470" height="130" as="geometry" />
        </mxCell>
        <mxCell id="PB90sreJ_Cs1K-A4sm1Q-23" value="- shell: Shell" style="text;strokeColor=none;fillColor=none;align=left;verticalAlign=top;spacingLeft=4;spacingRight=4;overflow=hidden;rotatable=0;points=[[0,0.5],[1,0.5]];portConstraint=eastwest;whiteSpace=wrap;html=1;" parent="PB90sreJ_Cs1K-A4sm1Q-22" vertex="1">
          <mxGeometry y="26" width="470" height="26" as="geometry" />
        </mxCell>
        <mxCell id="PB90sreJ_Cs1K-A4sm1Q-24" value="" style="line;strokeWidth=1;fillColor=none;align=left;verticalAlign=middle;spacingTop=-1;spacingLeft=3;spacingRight=3;rotatable=0;labelPosition=right;points=[];portConstraint=eastwest;strokeColor=inherit;" parent="PB90sreJ_Cs1K-A4sm1Q-22" vertex="1">
          <mxGeometry y="52" width="470" height="8" as="geometry" />
        </mxCell>
        <mxCell id="PB90sreJ_Cs1K-A4sm1Q-25" value="+ CompileAndUploadArduinoProjectAction():&amp;nbsp;CompileAndUploadArduinoProjectAction&lt;div&gt;&lt;div&gt;+&amp;nbsp;setActivePart(action:&amp;nbsp;&lt;span style=&quot;background-color: initial;&quot;&gt;IAction&lt;/span&gt;&lt;span style=&quot;background-color: initial;&quot;&gt;, targetPart:&amp;nbsp;&lt;/span&gt;&lt;span style=&quot;background-color: initial;&quot;&gt;IWorkbenchPart&lt;/span&gt;&lt;span style=&quot;background-color: initial;&quot;&gt;): void&lt;/span&gt;&lt;/div&gt;&lt;div&gt;+ run(action:&amp;nbsp;&lt;span style=&quot;background-color: initial;&quot;&gt;IAction&lt;/span&gt;&lt;span style=&quot;background-color: initial;&quot;&gt;): void&lt;/span&gt;&lt;/div&gt;&lt;div&gt;+&amp;nbsp;selectionChanged(action:&amp;nbsp;&lt;span style=&quot;background-color: initial;&quot;&gt;IAction&lt;/span&gt;&lt;span style=&quot;background-color: initial;&quot;&gt;, selection:&amp;nbsp;&lt;/span&gt;&lt;span style=&quot;background-color: initial;&quot;&gt;ISelection&lt;/span&gt;&lt;span style=&quot;background-color: initial;&quot;&gt;): void&lt;/span&gt;&lt;/div&gt;&lt;/div&gt;" style="text;strokeColor=none;fillColor=none;align=left;verticalAlign=top;spacingLeft=4;spacingRight=4;overflow=hidden;rotatable=0;points=[[0,0.5],[1,0.5]];portConstraint=eastwest;whiteSpace=wrap;html=1;" parent="PB90sreJ_Cs1K-A4sm1Q-22" vertex="1">
          <mxGeometry y="60" width="470" height="70" as="geometry" />
        </mxCell>
        <mxCell id="PB90sreJ_Cs1K-A4sm1Q-27" value="Use" style="endArrow=open;endSize=12;dashed=1;html=1;rounded=0;exitX=0;exitY=0;exitDx=0;exitDy=0;entryX=0.985;entryY=1.003;entryDx=0;entryDy=0;entryPerimeter=0;" parent="1" source="PB90sreJ_Cs1K-A4sm1Q-22" target="PB90sreJ_Cs1K-A4sm1Q-19" edge="1">
          <mxGeometry x="0.2203" y="12" width="160" relative="1" as="geometry">
            <mxPoint x="1570" y="448" as="sourcePoint" />
            <mxPoint x="1490" y="450" as="targetPoint" />
            <mxPoint as="offset" />
          </mxGeometry>
        </mxCell>
        <mxCell id="PB90sreJ_Cs1K-A4sm1Q-28" value="CompileArduinoProjectAction" style="swimlane;fontStyle=1;align=center;verticalAlign=top;childLayout=stackLayout;horizontal=1;startSize=26;horizontalStack=0;resizeParent=1;resizeParentMax=0;resizeLast=0;collapsible=1;marginBottom=0;whiteSpace=wrap;html=1;" parent="1" vertex="1">
          <mxGeometry x="1850" y="160" width="360" height="130" as="geometry" />
        </mxCell>
        <mxCell id="PB90sreJ_Cs1K-A4sm1Q-29" value="- shell: Shell" style="text;strokeColor=none;fillColor=none;align=left;verticalAlign=top;spacingLeft=4;spacingRight=4;overflow=hidden;rotatable=0;points=[[0,0.5],[1,0.5]];portConstraint=eastwest;whiteSpace=wrap;html=1;" parent="PB90sreJ_Cs1K-A4sm1Q-28" vertex="1">
          <mxGeometry y="26" width="360" height="26" as="geometry" />
        </mxCell>
        <mxCell id="PB90sreJ_Cs1K-A4sm1Q-30" value="" style="line;strokeWidth=1;fillColor=none;align=left;verticalAlign=middle;spacingTop=-1;spacingLeft=3;spacingRight=3;rotatable=0;labelPosition=right;points=[];portConstraint=eastwest;strokeColor=inherit;" parent="PB90sreJ_Cs1K-A4sm1Q-28" vertex="1">
          <mxGeometry y="52" width="360" height="8" as="geometry" />
        </mxCell>
        <mxCell id="PB90sreJ_Cs1K-A4sm1Q-31" value="+ CompileArduinoProjectAction():&amp;nbsp;CompileArduinoProjectAction&lt;div&gt;&lt;div&gt;+&amp;nbsp;setActivePart(action:&amp;nbsp;&lt;span style=&quot;background-color: initial;&quot;&gt;IAction&lt;/span&gt;&lt;span style=&quot;background-color: initial;&quot;&gt;, targetPart:&amp;nbsp;&lt;/span&gt;&lt;span style=&quot;background-color: initial;&quot;&gt;IWorkbenchPart&lt;/span&gt;&lt;span style=&quot;background-color: initial;&quot;&gt;): void&lt;/span&gt;&lt;/div&gt;&lt;div&gt;+ run(action:&amp;nbsp;&lt;span style=&quot;background-color: initial;&quot;&gt;IAction&lt;/span&gt;&lt;span style=&quot;background-color: initial;&quot;&gt;): void&lt;/span&gt;&lt;/div&gt;&lt;div&gt;+&amp;nbsp;selectionChanged(action:&amp;nbsp;&lt;span style=&quot;background-color: initial;&quot;&gt;IAction&lt;/span&gt;&lt;span style=&quot;background-color: initial;&quot;&gt;, selection:&amp;nbsp;&lt;/span&gt;&lt;span style=&quot;background-color: initial;&quot;&gt;ISelection&lt;/span&gt;&lt;span style=&quot;background-color: initial;&quot;&gt;): void&lt;/span&gt;&lt;/div&gt;&lt;/div&gt;" style="text;strokeColor=none;fillColor=none;align=left;verticalAlign=top;spacingLeft=4;spacingRight=4;overflow=hidden;rotatable=0;points=[[0,0.5],[1,0.5]];portConstraint=eastwest;whiteSpace=wrap;html=1;" parent="PB90sreJ_Cs1K-A4sm1Q-28" vertex="1">
          <mxGeometry y="60" width="360" height="70" as="geometry" />
        </mxCell>
        <mxCell id="PB90sreJ_Cs1K-A4sm1Q-32" value="Use" style="endArrow=open;endSize=12;dashed=1;html=1;rounded=0;" parent="1" source="PB90sreJ_Cs1K-A4sm1Q-28" target="PB90sreJ_Cs1K-A4sm1Q-16" edge="1">
          <mxGeometry x="0.1203" y="16" width="160" relative="1" as="geometry">
            <mxPoint x="1891" y="140" as="sourcePoint" />
            <mxPoint x="1670" y="250" as="targetPoint" />
            <mxPoint as="offset" />
          </mxGeometry>
        </mxCell>
        <mxCell id="PB90sreJ_Cs1K-A4sm1Q-33" value="ZippedArduinoLibraryInstaller" style="swimlane;fontStyle=1;align=center;verticalAlign=top;childLayout=stackLayout;horizontal=1;startSize=26;horizontalStack=0;resizeParent=1;resizeParentMax=0;resizeLast=0;collapsible=1;marginBottom=0;whiteSpace=wrap;html=1;" parent="1" vertex="1">
          <mxGeometry x="1220" y="-500" width="480" height="118" as="geometry" />
        </mxCell>
        <mxCell id="PB90sreJ_Cs1K-A4sm1Q-34" value="+&amp;nbsp;&lt;span style=&quot;background-color: initial;&quot;&gt;alreadyInstalled: boolean&lt;/span&gt;&lt;div&gt;+&amp;nbsp;&lt;u&gt;messageWindowTitle:&amp;nbsp;String =&amp;nbsp;&quot;ArduinoCLIUtilizer: Zipped arduino library installation&quot;&lt;/u&gt;&lt;/div&gt;" style="text;strokeColor=none;fillColor=none;align=left;verticalAlign=top;spacingLeft=4;spacingRight=4;overflow=hidden;rotatable=0;points=[[0,0.5],[1,0.5]];portConstraint=eastwest;whiteSpace=wrap;html=1;" parent="PB90sreJ_Cs1K-A4sm1Q-33" vertex="1">
          <mxGeometry y="26" width="480" height="44" as="geometry" />
        </mxCell>
        <mxCell id="PB90sreJ_Cs1K-A4sm1Q-35" value="" style="line;strokeWidth=1;fillColor=none;align=left;verticalAlign=middle;spacingTop=-1;spacingLeft=3;spacingRight=3;rotatable=0;labelPosition=right;points=[];portConstraint=eastwest;strokeColor=inherit;" parent="PB90sreJ_Cs1K-A4sm1Q-33" vertex="1">
          <mxGeometry y="70" width="480" height="8" as="geometry" />
        </mxCell>
        <mxCell id="PB90sreJ_Cs1K-A4sm1Q-36" value="+ ZippedArduinoLibraryInstaller(targetFilePath: Path):&amp;nbsp;ZippedArduinoLibraryInstaller&lt;div&gt;+ generateResultMessage(): String&lt;br&gt;&lt;/div&gt;" style="text;strokeColor=none;fillColor=none;align=left;verticalAlign=top;spacingLeft=4;spacingRight=4;overflow=hidden;rotatable=0;points=[[0,0.5],[1,0.5]];portConstraint=eastwest;whiteSpace=wrap;html=1;" parent="PB90sreJ_Cs1K-A4sm1Q-33" vertex="1">
          <mxGeometry y="78" width="480" height="40" as="geometry" />
        </mxCell>
        <mxCell id="PB90sreJ_Cs1K-A4sm1Q-38" value="ListAllConnectedArduinoBoardsAction" style="swimlane;fontStyle=1;align=center;verticalAlign=top;childLayout=stackLayout;horizontal=1;startSize=26;horizontalStack=0;resizeParent=1;resizeParentMax=0;resizeLast=0;collapsible=1;marginBottom=0;whiteSpace=wrap;html=1;" parent="1" vertex="1">
          <mxGeometry x="1760" width="450" height="130" as="geometry" />
        </mxCell>
        <mxCell id="PB90sreJ_Cs1K-A4sm1Q-39" value="- shell: Shell" style="text;strokeColor=none;fillColor=none;align=left;verticalAlign=top;spacingLeft=4;spacingRight=4;overflow=hidden;rotatable=0;points=[[0,0.5],[1,0.5]];portConstraint=eastwest;whiteSpace=wrap;html=1;" parent="PB90sreJ_Cs1K-A4sm1Q-38" vertex="1">
          <mxGeometry y="26" width="450" height="26" as="geometry" />
        </mxCell>
        <mxCell id="PB90sreJ_Cs1K-A4sm1Q-40" value="" style="line;strokeWidth=1;fillColor=none;align=left;verticalAlign=middle;spacingTop=-1;spacingLeft=3;spacingRight=3;rotatable=0;labelPosition=right;points=[];portConstraint=eastwest;strokeColor=inherit;" parent="PB90sreJ_Cs1K-A4sm1Q-38" vertex="1">
          <mxGeometry y="52" width="450" height="8" as="geometry" />
        </mxCell>
        <mxCell id="PB90sreJ_Cs1K-A4sm1Q-41" value="+ ListAllConnectedArduinoBoardsAction():&amp;nbsp;ListAllConnectedArduinoBoardsAction&lt;div&gt;&lt;div&gt;+&amp;nbsp;setActivePart(action:&amp;nbsp;&lt;span style=&quot;background-color: initial;&quot;&gt;IAction&lt;/span&gt;&lt;span style=&quot;background-color: initial;&quot;&gt;, targetPart:&amp;nbsp;&lt;/span&gt;&lt;span style=&quot;background-color: initial;&quot;&gt;IWorkbenchPart&lt;/span&gt;&lt;span style=&quot;background-color: initial;&quot;&gt;): void&lt;/span&gt;&lt;/div&gt;&lt;div&gt;+ run(action:&amp;nbsp;&lt;span style=&quot;background-color: initial;&quot;&gt;IAction&lt;/span&gt;&lt;span style=&quot;background-color: initial;&quot;&gt;): void&lt;/span&gt;&lt;/div&gt;&lt;div&gt;+&amp;nbsp;selectionChanged(action:&amp;nbsp;&lt;span style=&quot;background-color: initial;&quot;&gt;IAction&lt;/span&gt;&lt;span style=&quot;background-color: initial;&quot;&gt;, selection:&amp;nbsp;&lt;/span&gt;&lt;span style=&quot;background-color: initial;&quot;&gt;ISelection&lt;/span&gt;&lt;span style=&quot;background-color: initial;&quot;&gt;): void&lt;/span&gt;&lt;/div&gt;&lt;/div&gt;" style="text;strokeColor=none;fillColor=none;align=left;verticalAlign=top;spacingLeft=4;spacingRight=4;overflow=hidden;rotatable=0;points=[[0,0.5],[1,0.5]];portConstraint=eastwest;whiteSpace=wrap;html=1;" parent="PB90sreJ_Cs1K-A4sm1Q-38" vertex="1">
          <mxGeometry y="60" width="450" height="70" as="geometry" />
        </mxCell>
        <mxCell id="PB90sreJ_Cs1K-A4sm1Q-43" value="Use" style="endArrow=open;endSize=12;dashed=1;html=1;rounded=0;" parent="1" source="PB90sreJ_Cs1K-A4sm1Q-38" target="fb7qDsoBfBqJsrEPXAHY-134" edge="1">
          <mxGeometry x="0.1203" y="16" width="160" relative="1" as="geometry">
            <mxPoint x="1428" y="326" as="sourcePoint" />
            <mxPoint x="1351" y="330" as="targetPoint" />
            <mxPoint as="offset" />
          </mxGeometry>
        </mxCell>
        <mxCell id="PB90sreJ_Cs1K-A4sm1Q-44" value="UploadArduinoProjectAction" style="swimlane;fontStyle=1;align=center;verticalAlign=top;childLayout=stackLayout;horizontal=1;startSize=26;horizontalStack=0;resizeParent=1;resizeParentMax=0;resizeLast=0;collapsible=1;marginBottom=0;whiteSpace=wrap;html=1;" parent="1" vertex="1">
          <mxGeometry x="1850" y="320" width="360" height="130" as="geometry" />
        </mxCell>
        <mxCell id="PB90sreJ_Cs1K-A4sm1Q-45" value="- shell: Shell" style="text;strokeColor=none;fillColor=none;align=left;verticalAlign=top;spacingLeft=4;spacingRight=4;overflow=hidden;rotatable=0;points=[[0,0.5],[1,0.5]];portConstraint=eastwest;whiteSpace=wrap;html=1;" parent="PB90sreJ_Cs1K-A4sm1Q-44" vertex="1">
          <mxGeometry y="26" width="360" height="26" as="geometry" />
        </mxCell>
        <mxCell id="PB90sreJ_Cs1K-A4sm1Q-46" value="" style="line;strokeWidth=1;fillColor=none;align=left;verticalAlign=middle;spacingTop=-1;spacingLeft=3;spacingRight=3;rotatable=0;labelPosition=right;points=[];portConstraint=eastwest;strokeColor=inherit;" parent="PB90sreJ_Cs1K-A4sm1Q-44" vertex="1">
          <mxGeometry y="52" width="360" height="8" as="geometry" />
        </mxCell>
        <mxCell id="PB90sreJ_Cs1K-A4sm1Q-47" value="+ UploadArduinoProjectAction():&amp;nbsp;UploadArduinoProjectAction&lt;div&gt;&lt;div&gt;+&amp;nbsp;setActivePart(action:&amp;nbsp;&lt;span style=&quot;background-color: initial;&quot;&gt;IAction&lt;/span&gt;&lt;span style=&quot;background-color: initial;&quot;&gt;, targetPart:&amp;nbsp;&lt;/span&gt;&lt;span style=&quot;background-color: initial;&quot;&gt;IWorkbenchPart&lt;/span&gt;&lt;span style=&quot;background-color: initial;&quot;&gt;): void&lt;/span&gt;&lt;/div&gt;&lt;div&gt;+ run(action:&amp;nbsp;&lt;span style=&quot;background-color: initial;&quot;&gt;IAction&lt;/span&gt;&lt;span style=&quot;background-color: initial;&quot;&gt;): void&lt;/span&gt;&lt;/div&gt;&lt;div&gt;+&amp;nbsp;selectionChanged(action:&amp;nbsp;&lt;span style=&quot;background-color: initial;&quot;&gt;IAction&lt;/span&gt;&lt;span style=&quot;background-color: initial;&quot;&gt;, selection:&amp;nbsp;&lt;/span&gt;&lt;span style=&quot;background-color: initial;&quot;&gt;ISelection&lt;/span&gt;&lt;span style=&quot;background-color: initial;&quot;&gt;): void&lt;/span&gt;&lt;/div&gt;&lt;/div&gt;" style="text;strokeColor=none;fillColor=none;align=left;verticalAlign=top;spacingLeft=4;spacingRight=4;overflow=hidden;rotatable=0;points=[[0,0.5],[1,0.5]];portConstraint=eastwest;whiteSpace=wrap;html=1;" parent="PB90sreJ_Cs1K-A4sm1Q-44" vertex="1">
          <mxGeometry y="60" width="360" height="70" as="geometry" />
        </mxCell>
        <mxCell id="PB90sreJ_Cs1K-A4sm1Q-49" value="Use" style="endArrow=open;endSize=12;dashed=1;html=1;rounded=0;" parent="1" source="PB90sreJ_Cs1K-A4sm1Q-44" target="PB90sreJ_Cs1K-A4sm1Q-16" edge="1">
          <mxGeometry x="0.1203" y="16" width="160" relative="1" as="geometry">
            <mxPoint x="1890" y="505" as="sourcePoint" />
            <mxPoint x="1660" y="380" as="targetPoint" />
            <mxPoint as="offset" />
          </mxGeometry>
        </mxCell>
        <mxCell id="PB90sreJ_Cs1K-A4sm1Q-50" value="UploadCall" style="swimlane;fontStyle=1;align=center;verticalAlign=top;childLayout=stackLayout;horizontal=1;startSize=26;horizontalStack=0;resizeParent=1;resizeParentMax=0;resizeLast=0;collapsible=1;marginBottom=0;whiteSpace=wrap;html=1;" parent="1" vertex="1">
          <mxGeometry x="1220" y="670" width="510" height="130" as="geometry" />
        </mxCell>
        <mxCell id="PB90sreJ_Cs1K-A4sm1Q-51" value="+ &lt;u&gt;messageWindowTitle: String = &quot;ArduinoCLIUtilizer: Upload step&quot;&lt;/u&gt; {readOnly}&lt;div&gt;-&amp;nbsp;notInSyncProblem: String&lt;/div&gt;" style="text;strokeColor=none;fillColor=none;align=left;verticalAlign=top;spacingLeft=4;spacingRight=4;overflow=hidden;rotatable=0;points=[[0,0.5],[1,0.5]];portConstraint=eastwest;whiteSpace=wrap;html=1;" parent="PB90sreJ_Cs1K-A4sm1Q-50" vertex="1">
          <mxGeometry y="26" width="510" height="44" as="geometry" />
        </mxCell>
        <mxCell id="PB90sreJ_Cs1K-A4sm1Q-52" value="" style="line;strokeWidth=1;fillColor=none;align=left;verticalAlign=middle;spacingTop=-1;spacingLeft=3;spacingRight=3;rotatable=0;labelPosition=right;points=[];portConstraint=eastwest;strokeColor=inherit;" parent="PB90sreJ_Cs1K-A4sm1Q-50" vertex="1">
          <mxGeometry y="70" width="510" height="8" as="geometry" />
        </mxCell>
        <mxCell id="PB90sreJ_Cs1K-A4sm1Q-53" value="+ UploadCall(targetFilePath: Path, foundPortAddress: String, targetFqbn: String): UploadCall&lt;div&gt;+ generateResultMessage(): String&lt;br&gt;&lt;/div&gt;&lt;div&gt;+&amp;nbsp;hadNotInSyncProblem(): boolean&lt;/div&gt;" style="text;strokeColor=none;fillColor=none;align=left;verticalAlign=top;spacingLeft=4;spacingRight=4;overflow=hidden;rotatable=0;points=[[0,0.5],[1,0.5]];portConstraint=eastwest;whiteSpace=wrap;html=1;" parent="PB90sreJ_Cs1K-A4sm1Q-50" vertex="1">
          <mxGeometry y="78" width="510" height="52" as="geometry" />
        </mxCell>
        <mxCell id="PB90sreJ_Cs1K-A4sm1Q-54" value="Use" style="endArrow=open;endSize=12;dashed=1;html=1;rounded=0;exitX=0.003;exitY=1.006;exitDx=0;exitDy=0;exitPerimeter=0;entryX=0.873;entryY=0;entryDx=0;entryDy=0;entryPerimeter=0;" parent="1" source="PB90sreJ_Cs1K-A4sm1Q-47" target="PB90sreJ_Cs1K-A4sm1Q-50" edge="1">
          <mxGeometry x="0.4161" y="-23" width="160" relative="1" as="geometry">
            <mxPoint x="1890" y="364" as="sourcePoint" />
            <mxPoint x="1790" y="346" as="targetPoint" />
            <mxPoint as="offset" />
          </mxGeometry>
        </mxCell>
        <mxCell id="PB90sreJ_Cs1K-A4sm1Q-55" value="Use" style="endArrow=open;endSize=12;dashed=1;html=1;rounded=0;" parent="1" edge="1" target="PB90sreJ_Cs1K-A4sm1Q-50" source="PB90sreJ_Cs1K-A4sm1Q-22">
          <mxGeometry x="0.1203" y="16" width="160" relative="1" as="geometry">
            <mxPoint x="2020" y="698.58" as="sourcePoint" />
            <mxPoint x="1940" y="698.58" as="targetPoint" />
            <mxPoint as="offset" />
          </mxGeometry>
        </mxCell>
        <mxCell id="PB90sreJ_Cs1K-A4sm1Q-56" value="UploadInoHexFileAction" style="swimlane;fontStyle=1;align=center;verticalAlign=top;childLayout=stackLayout;horizontal=1;startSize=26;horizontalStack=0;resizeParent=1;resizeParentMax=0;resizeLast=0;collapsible=1;marginBottom=0;whiteSpace=wrap;html=1;" parent="1" vertex="1">
          <mxGeometry x="1850" y="480" width="360" height="130" as="geometry" />
        </mxCell>
        <mxCell id="PB90sreJ_Cs1K-A4sm1Q-57" value="- shell: Shell" style="text;strokeColor=none;fillColor=none;align=left;verticalAlign=top;spacingLeft=4;spacingRight=4;overflow=hidden;rotatable=0;points=[[0,0.5],[1,0.5]];portConstraint=eastwest;whiteSpace=wrap;html=1;" parent="PB90sreJ_Cs1K-A4sm1Q-56" vertex="1">
          <mxGeometry y="26" width="360" height="26" as="geometry" />
        </mxCell>
        <mxCell id="PB90sreJ_Cs1K-A4sm1Q-58" value="" style="line;strokeWidth=1;fillColor=none;align=left;verticalAlign=middle;spacingTop=-1;spacingLeft=3;spacingRight=3;rotatable=0;labelPosition=right;points=[];portConstraint=eastwest;strokeColor=inherit;" parent="PB90sreJ_Cs1K-A4sm1Q-56" vertex="1">
          <mxGeometry y="52" width="360" height="8" as="geometry" />
        </mxCell>
        <mxCell id="PB90sreJ_Cs1K-A4sm1Q-59" value="+ UploadInoHexFileAction():&amp;nbsp;UploadInoHexFileAction&lt;div&gt;&lt;div&gt;+&amp;nbsp;setActivePart(action:&amp;nbsp;&lt;span style=&quot;background-color: initial;&quot;&gt;IAction&lt;/span&gt;&lt;span style=&quot;background-color: initial;&quot;&gt;, targetPart:&amp;nbsp;&lt;/span&gt;&lt;span style=&quot;background-color: initial;&quot;&gt;IWorkbenchPart&lt;/span&gt;&lt;span style=&quot;background-color: initial;&quot;&gt;): void&lt;/span&gt;&lt;/div&gt;&lt;div&gt;+ run(action:&amp;nbsp;&lt;span style=&quot;background-color: initial;&quot;&gt;IAction&lt;/span&gt;&lt;span style=&quot;background-color: initial;&quot;&gt;): void&lt;/span&gt;&lt;/div&gt;&lt;div&gt;+&amp;nbsp;selectionChanged(action:&amp;nbsp;&lt;span style=&quot;background-color: initial;&quot;&gt;IAction&lt;/span&gt;&lt;span style=&quot;background-color: initial;&quot;&gt;, selection:&amp;nbsp;&lt;/span&gt;&lt;span style=&quot;background-color: initial;&quot;&gt;ISelection&lt;/span&gt;&lt;span style=&quot;background-color: initial;&quot;&gt;): void&lt;/span&gt;&lt;/div&gt;&lt;/div&gt;" style="text;strokeColor=none;fillColor=none;align=left;verticalAlign=top;spacingLeft=4;spacingRight=4;overflow=hidden;rotatable=0;points=[[0,0.5],[1,0.5]];portConstraint=eastwest;whiteSpace=wrap;html=1;" parent="PB90sreJ_Cs1K-A4sm1Q-56" vertex="1">
          <mxGeometry y="60" width="360" height="70" as="geometry" />
        </mxCell>
        <mxCell id="PB90sreJ_Cs1K-A4sm1Q-60" value="Use" style="endArrow=open;endSize=12;dashed=1;html=1;rounded=0;exitX=0;exitY=0.5;exitDx=0;exitDy=0;entryX=1.001;entryY=1;entryDx=0;entryDy=0;entryPerimeter=0;" parent="1" source="PB90sreJ_Cs1K-A4sm1Q-57" target="PB90sreJ_Cs1K-A4sm1Q-19" edge="1">
          <mxGeometry x="0.1203" y="16" width="160" relative="1" as="geometry">
            <mxPoint x="1890" y="630" as="sourcePoint" />
            <mxPoint x="1637" y="380" as="targetPoint" />
            <mxPoint as="offset" />
          </mxGeometry>
        </mxCell>
        <mxCell id="PB90sreJ_Cs1K-A4sm1Q-61" value="Use" style="endArrow=open;endSize=12;dashed=1;html=1;rounded=0;exitX=0;exitY=0.5;exitDx=0;exitDy=0;entryX=0.903;entryY=0;entryDx=0;entryDy=0;entryPerimeter=0;" parent="1" source="PB90sreJ_Cs1K-A4sm1Q-59" target="PB90sreJ_Cs1K-A4sm1Q-50" edge="1">
          <mxGeometry x="-0.5023" y="21" width="160" relative="1" as="geometry">
            <mxPoint x="1890" y="425" as="sourcePoint" />
            <mxPoint x="1656" y="630" as="targetPoint" />
            <mxPoint as="offset" />
          </mxGeometry>
        </mxCell>
        <mxCell id="PB90sreJ_Cs1K-A4sm1Q-62" value="VerifyArduinoProjectAction" style="swimlane;fontStyle=1;align=center;verticalAlign=top;childLayout=stackLayout;horizontal=1;startSize=26;horizontalStack=0;resizeParent=1;resizeParentMax=0;resizeLast=0;collapsible=1;marginBottom=0;whiteSpace=wrap;html=1;" parent="1" vertex="1">
          <mxGeometry x="1790" y="-500" width="360" height="130" as="geometry" />
        </mxCell>
        <mxCell id="PB90sreJ_Cs1K-A4sm1Q-63" value="- shell: Shell" style="text;strokeColor=none;fillColor=none;align=left;verticalAlign=top;spacingLeft=4;spacingRight=4;overflow=hidden;rotatable=0;points=[[0,0.5],[1,0.5]];portConstraint=eastwest;whiteSpace=wrap;html=1;" parent="PB90sreJ_Cs1K-A4sm1Q-62" vertex="1">
          <mxGeometry y="26" width="360" height="26" as="geometry" />
        </mxCell>
        <mxCell id="PB90sreJ_Cs1K-A4sm1Q-64" value="" style="line;strokeWidth=1;fillColor=none;align=left;verticalAlign=middle;spacingTop=-1;spacingLeft=3;spacingRight=3;rotatable=0;labelPosition=right;points=[];portConstraint=eastwest;strokeColor=inherit;" parent="PB90sreJ_Cs1K-A4sm1Q-62" vertex="1">
          <mxGeometry y="52" width="360" height="8" as="geometry" />
        </mxCell>
        <mxCell id="PB90sreJ_Cs1K-A4sm1Q-65" value="+ VerifyArduinoProjectAction():&amp;nbsp;VerifyArduinoProjectAction&lt;div&gt;&lt;div&gt;&lt;div&gt;+&amp;nbsp;setActivePart(action:&amp;nbsp;&lt;span style=&quot;background-color: initial;&quot;&gt;IAction&lt;/span&gt;&lt;span style=&quot;background-color: initial;&quot;&gt;, targetPart:&amp;nbsp;&lt;/span&gt;&lt;span style=&quot;background-color: initial;&quot;&gt;IWorkbenchPart&lt;/span&gt;&lt;span style=&quot;background-color: initial;&quot;&gt;): void&lt;/span&gt;&lt;/div&gt;&lt;div&gt;+ run(action:&amp;nbsp;&lt;span style=&quot;background-color: initial;&quot;&gt;IAction&lt;/span&gt;&lt;span style=&quot;background-color: initial;&quot;&gt;): void&lt;/span&gt;&lt;/div&gt;&lt;div&gt;+&amp;nbsp;selectionChanged(action:&amp;nbsp;&lt;span style=&quot;background-color: initial;&quot;&gt;IAction&lt;/span&gt;&lt;span style=&quot;background-color: initial;&quot;&gt;, selection:&amp;nbsp;&lt;/span&gt;&lt;span style=&quot;background-color: initial;&quot;&gt;ISelection&lt;/span&gt;&lt;span style=&quot;background-color: initial;&quot;&gt;): void&lt;/span&gt;&lt;/div&gt;&lt;/div&gt;&lt;/div&gt;" style="text;strokeColor=none;fillColor=none;align=left;verticalAlign=top;spacingLeft=4;spacingRight=4;overflow=hidden;rotatable=0;points=[[0,0.5],[1,0.5]];portConstraint=eastwest;whiteSpace=wrap;html=1;" parent="PB90sreJ_Cs1K-A4sm1Q-62" vertex="1">
          <mxGeometry y="60" width="360" height="70" as="geometry" />
        </mxCell>
        <mxCell id="PB90sreJ_Cs1K-A4sm1Q-66" value="InstallZippedArduinoLibraryAction" style="swimlane;fontStyle=1;align=center;verticalAlign=top;childLayout=stackLayout;horizontal=1;startSize=26;horizontalStack=0;resizeParent=1;resizeParentMax=0;resizeLast=0;collapsible=1;marginBottom=0;whiteSpace=wrap;html=1;" parent="1" vertex="1">
          <mxGeometry x="1750" y="-340" width="400" height="130" as="geometry" />
        </mxCell>
        <mxCell id="PB90sreJ_Cs1K-A4sm1Q-67" value="- shell: Shell" style="text;strokeColor=none;fillColor=none;align=left;verticalAlign=top;spacingLeft=4;spacingRight=4;overflow=hidden;rotatable=0;points=[[0,0.5],[1,0.5]];portConstraint=eastwest;whiteSpace=wrap;html=1;" parent="PB90sreJ_Cs1K-A4sm1Q-66" vertex="1">
          <mxGeometry y="26" width="400" height="26" as="geometry" />
        </mxCell>
        <mxCell id="PB90sreJ_Cs1K-A4sm1Q-68" value="" style="line;strokeWidth=1;fillColor=none;align=left;verticalAlign=middle;spacingTop=-1;spacingLeft=3;spacingRight=3;rotatable=0;labelPosition=right;points=[];portConstraint=eastwest;strokeColor=inherit;" parent="PB90sreJ_Cs1K-A4sm1Q-66" vertex="1">
          <mxGeometry y="52" width="400" height="8" as="geometry" />
        </mxCell>
        <mxCell id="PB90sreJ_Cs1K-A4sm1Q-69" value="+ InstallZippedArduinoLibraryAction():&amp;nbsp;InstallZippedArduinoLibraryAction&lt;div&gt;&lt;div&gt;&lt;div&gt;+&amp;nbsp;setActivePart(action:&amp;nbsp;&lt;span style=&quot;background-color: initial;&quot;&gt;IAction&lt;/span&gt;&lt;span style=&quot;background-color: initial;&quot;&gt;, targetPart:&amp;nbsp;&lt;/span&gt;&lt;span style=&quot;background-color: initial;&quot;&gt;IWorkbenchPart&lt;/span&gt;&lt;span style=&quot;background-color: initial;&quot;&gt;): void&lt;/span&gt;&lt;/div&gt;&lt;div&gt;+ run(action:&amp;nbsp;&lt;span style=&quot;background-color: initial;&quot;&gt;IAction&lt;/span&gt;&lt;span style=&quot;background-color: initial;&quot;&gt;): void&lt;/span&gt;&lt;/div&gt;&lt;div&gt;+&amp;nbsp;selectionChanged(action:&amp;nbsp;&lt;span style=&quot;background-color: initial;&quot;&gt;IAction&lt;/span&gt;&lt;span style=&quot;background-color: initial;&quot;&gt;, selection:&amp;nbsp;&lt;/span&gt;&lt;span style=&quot;background-color: initial;&quot;&gt;ISelection&lt;/span&gt;&lt;span style=&quot;background-color: initial;&quot;&gt;): void&lt;/span&gt;&lt;/div&gt;&lt;/div&gt;&lt;/div&gt;" style="text;strokeColor=none;fillColor=none;align=left;verticalAlign=top;spacingLeft=4;spacingRight=4;overflow=hidden;rotatable=0;points=[[0,0.5],[1,0.5]];portConstraint=eastwest;whiteSpace=wrap;html=1;" parent="PB90sreJ_Cs1K-A4sm1Q-66" vertex="1">
          <mxGeometry y="60" width="400" height="70" as="geometry" />
        </mxCell>
        <mxCell id="fb7qDsoBfBqJsrEPXAHY-71" value="&lt;p style=&quot;margin:0px;margin-top:4px;text-align:center;&quot;&gt;&lt;i&gt;&amp;lt;&amp;lt;Interface&amp;gt;&amp;gt;&lt;/i&gt;&lt;br&gt;&lt;b&gt;DefaultArduinoCLIPath&lt;/b&gt;&lt;br&gt;&lt;/p&gt;&lt;hr size=&quot;1&quot; style=&quot;border-style:solid;&quot;&gt;&lt;p style=&quot;margin:0px;margin-left:4px;&quot;&gt;&lt;span style=&quot;background-color: initial;&quot;&gt;+ DEFAULT_ARDUINO_CLI_PATH : String = &quot;/home/muml/ArduinoCLI&quot; {readOnly}&lt;/span&gt;&lt;br&gt;&lt;/p&gt;" style="verticalAlign=top;align=left;overflow=fill;html=1;whiteSpace=wrap;" parent="1" vertex="1">
          <mxGeometry x="1220" y="-340" width="480" height="80" as="geometry" />
        </mxCell>
        <mxCell id="PB90sreJ_Cs1K-A4sm1Q-71" value="Use" style="endArrow=open;endSize=12;dashed=1;html=1;rounded=0;entryX=0.996;entryY=1;entryDx=0;entryDy=0;entryPerimeter=0;exitX=0;exitY=0;exitDx=0;exitDy=0;" parent="1" source="PB90sreJ_Cs1K-A4sm1Q-66" target="PB90sreJ_Cs1K-A4sm1Q-36" edge="1">
          <mxGeometry x="-0.2532" y="-15" width="160" relative="1" as="geometry">
            <mxPoint x="1700" y="-121" as="sourcePoint" />
            <mxPoint x="1670" y="-120" as="targetPoint" />
            <mxPoint x="-1" as="offset" />
          </mxGeometry>
        </mxCell>
      </root>
    </mxGraphModel>
  </diagram>
</mxfile>
